# xmcd
#
# Track frame offsets: 
#        150
#        24633
#        36208
#        59523
#        75329
#        114213
#        131514
#        150500
#        174390
#        199255
#        219853
#        234654
#        258208
#        270811
#        282560
#        310476
#        325220
#
# Disc length: 4665 seconds
#
# Revision: 6
# Processed by: cddbd v1.5.2PL0 Copyright (c) Steve Scherf et al.
# Submitted via: ExactAudioCopy v0.99pb5
#
DISCID=e2123711
DTITLE=B.B. King - Les Legendes Du Blues
DYEAR=2003
DGENRE=Blues
TTITLE0=The Thrill Is Gone
TTITLE1=Paying The Cost To Be The Boss
TTITLE2=Don't Answer The Door
TTITLE3=I Like To Live The Love
TTITLE4=Why I Sing The Blues
TTITLE5=To Know You Is To Love You
TTITLE6=When Love Comes To Town
TTITLE7=Playin' With My Friends
TTITLE8=Never Make A Move Too Soon
TTITLE9=Hummingbird
TTITLE10=Ain't Nobody Home
TTITLE11=The Blues Come Over Me
TTITLE12=You Put It On Me
TTITLE13=Messy But Good
TTITLE14=Sweet Sixteen
TTITLE15=Three O'Clock Blues
TTITLE16=Let The Good Times Roll
EXTD=[MPC]
EXTT0=
EXTT1=
EXTT2=
EXTT3=
EXTT4=
EXTT5=
EXTT6=
EXTT7=
EXTT8=
EXTT9=
EXTT10=
EXTT11=
EXTT12=
EXTT13=
EXTT14=
EXTT15=
EXTT16=
PLAYORDER=
